<svg
  viewBox="0 0 64 64"
  fill="none"
  xmlns="http://www.w3.org/2000/svg"
>
  {/* Gradient defs */}
  <defs>
    <linearGradient
      id="fortressGradient"
      x1="0%"
      y1="0%"
      x2="100%"
      y2="100%"
    >
      <stop offset="0%" stopColor="#10b981" />
      <stop offset="100%" stopColor="#059669" />
    </linearGradient>
    <linearGradient
      id="accentGradient"
      x1="0%"
      y1="100%"
      x2="100%"
      y2="0%"
    >
      <stop offset="0%" stopColor="#3b82f6" />
      <stop offset="100%" stopColor="#06b6d4" />
    </linearGradient>
  </defs>

  {/* Shield background */}
  <path
    d="M 32 4 L 52 14 L 52 32 Q 32 50 32 50 Q 12 32 12 32 L 12 14 Z"
    fill="url(#fortressGradient)"
    opacity="0.95"
  />

  {/* Shield border */}
  <path
    d="M 32 4 L 52 14 L 52 32 Q 32 50 32 50 Q 12 32 12 32 L 12 14 Z"
    stroke="url(#accentGradient)"
    strokeWidth="1.5"
    fill="none"
  />

  {/* Fortress towers - architectural fortress with crenellations */}
  <g>
    {/* Left tower */}
    <rect
      x="20"
      y="18"
      width="4"
      height="18"
      fill="#f0fdf4"
      opacity="0.9"
    />
    {/* Left tower crenellations */}
    <g fill="#a7f3d0" opacity="0.8">
      <rect x="20" y="16" width="0.95" height="2.3" />
      <rect x="23" y="16" width="0.95" height="2.3" />
    </g>

    {/* Center tall tower */}
    <rect
      x="31"
      y="8"
      width="4"
      height="28"
      fill="#f0fdf4"
      opacity="0.95"
    />
    {/* Center tower crenellations - more prominent */}
    <g fill="#6ee7b7" opacity="0.9">
      <rect x="31" y="6" width="1" height="2.3" />
      <rect x="33.5" y="6" width="1" height="2.3" />
      <rect x="36" y="6" width="1" height="2.3" />
    </g>

    {/* Right tower */}
    <rect
      x="44"
      y="18"
      width="4"
      height="18"
      fill="#f0fdf4"
      opacity="0.9"
    />
    {/* Right tower crenellations */}
    <g fill="#a7f3d0" opacity="0.8">
      <rect x="44" y="16" width="0.95" height="2.3" />
      <rect x="47" y="16" width="0.95" height="2.3" />
    </g>

    {/* Connecting wall at base */}
    <rect
      x="20"
      y="40"
      width="24"
      height="2"
      fill="url(#accentGradient)"
      opacity="0.6"
    />

    {/* Accent highlight on center tower */}
    <rect
      x="33"
      y="12"
      width="1.2"
      height="20"
      fill="#fcd34d"
      opacity="0.5"
    />
  </g>
</svg>
